<svg height="511pt" viewBox="0 -26 511.9987 511" width="511pt" xmlns="http://www.w3.org/2000/svg"><path d="m114.726562 173.191406c-6.015624 55.125 16.867188 89.589844 52.738282 99.046875.230468.0625.464844.117188.699218.175781 22.363282-13.511718 41.707032-40.652343 53.152344-82.695312 1.886719-6.929688 3.488282-14.015625 4.8125-21.175781-30.773437-8.117188-66.589844 3.800781-111.402344 4.648437zm0 0" fill="#ff916c" fill-rule="evenodd"/><path d="m450.414062 182.386719c-12.285156-3.242188-25.277343-3.265625-39.289062-2.066407-22.84375 1.953126-48.386719 7.15625-77.957031 6.984376 18.394531 56.832031 52.285156 83.011718 87.113281 82.289062 22.003906-15.859375 34.390625-45.546875 30.132812-87.207031zm0 0" fill="#ff916c" fill-rule="evenodd"/><path d="m233.320312 101.777344-131.285156-34.625c-.007812 0 0 0-.007812 0h.007812c-4.253906-1.121094-8.75.671875-11.0625 4.421875-14.382812 23.328125-25.691406 49.285156-32.710937 75.0625-11.710938 43.015625-9.722657 79.921875 5.75 106.722656 8.953125 15.507813 22.089843 26.886719 38.320312 33.371094l-36.761719 135.050781-53.019531-13.980469c-5.335937-1.410156-10.808593 1.777344-12.21875 7.117188-1.40625 5.339843 1.777344 10.8125 7.121094 12.21875l125.21875 33.027343c.003906 0-.007813-.003906 0 0 .851563.222657 1.710937.332032 2.554687.332032 4.433594 0 8.480469-2.96875 9.664063-7.453125 1.40625-5.339844-1.777344-10.808594-7.121094-12.21875l-52.863281-13.941407 36.761719-135.023437c3.601562.5 7.207031.757813 10.789062.757813 44.589844 0 81.417969-37.484376 98.511719-100.269532 7.015625-25.785156 10.40625-53.835937 9.800781-81.125-.101562-4.457031-3.136719-8.308594-7.449219-9.445312zm-21.652343 85.316406c-14.578125 53.550781-44.191407 85.523438-79.214844 85.523438-5.097656 0-10.292969-.691407-15.4375-2.046876-15.414063-4.066406-27.75-13.472656-35.679687-27.210937-9.410157-16.292969-12.574219-37.789063-9.464844-63.109375 13.351562 2.171875 25.960937 3.011719 37.910156 3.011719 19.664062 0 37.582031-2.21875 54.234375-4.277344 18.789063-2.328125 35.464844-4.382813 50.285156-2.527344-.808593 3.582031-1.679687 7.132813-2.632812 10.636719zm6.285156-30.316406c-17.726563-2.414063-36.601563-.09375-56.390625 2.355468-25.3125 3.132813-53.691406 6.644532-86.179688 1.4375.660157-2.855468 1.378907-5.75 2.179688-8.679687 5.890625-21.648437 15.054688-43.449219 26.648438-63.480469l15.890624 4.191406c-2.882812 5.550782-5.539062 11.253907-7.605468 15.894532-2.25 5.042968.019531 10.957031 5.0625 13.207031 1.320312.589844 2.703125.867187 4.0625.867187 3.828125 0 7.484375-2.210937 9.140625-5.929687 3.234375-7.257813 6.398437-13.699219 9.214843-18.796875l80.855469 21.324219c-.082031 12.546875-1.058593 25.195312-2.878906 37.609375zm0 0"/><path d="m511.664062 414.917969c-1.40625-5.339844-6.882812-8.523438-12.21875-7.117188l-53.015624 13.980469-36.765626-135.054688c16.230469-6.480468 29.367188-17.859374 38.320313-33.367187 15.472656-26.800781 17.460937-63.707031 5.75-106.726563-7.015625-25.773437-18.328125-51.730468-32.710937-75.058593-2.3125-3.75-6.808594-5.546875-11.0625-4.421875l-131.28125 34.625c-4.3125 1.136718-7.351563 4.988281-7.449219 9.445312-.542969 24.554688 2.15625 49.722656 7.8125 73.300782.066406.332031.140625.660156.238281.980468.558594 2.292969 1.136719 4.578125 1.753906 6.84375 17.089844 62.777344 53.914063 100.265625 98.507813 100.269532h.007812c3.578125 0 7.183594-.257813 10.785157-.757813l36.753906 135.023437-52.859375 13.941407c-5.34375 1.40625-8.527344 6.878906-7.121094 12.21875 1.183594 4.488281 5.234375 7.453125 9.664063 7.453125.84375 0 1.703124-.109375 2.554687-.332032.007813-.003906-.003906 0 0 0l125.21875-33.027343c5.339844-1.40625 8.527344-6.878907 7.117187-12.21875zm-220.496093-295.753907 116.617187-30.753906c11.59375 20.03125 20.757813 41.832032 26.652344 63.480469 1.707031 6.277344 3.089844 12.382813 4.160156 18.304687-6.085937-.601562-12.28125-.695312-18.597656-.441406-1.074219-7.324218-2.65625-14.953125-4-20.871094-1.222656-5.386718-6.585938-8.761718-11.96875-7.535156-5.382812 1.222656-8.757812 6.582032-7.535156 11.964844 1.519531 6.675781 2.710937 12.824219 3.523437 18.089844-4.527343.519531-9.105469 1.101562-13.734375 1.691406-25.960937 3.3125-55.1875 7.035156-89.117187.984375-3.835938-17.808594-5.882813-36.464844-6-54.914063zm88.382812 153.449219c-.003906 0-.003906 0-.007812 0-33.21875 0-61.558594-28.777343-76.828125-77.429687 11.148437 1.527344 21.753906 2.148437 31.863281 2.148437 19.722656 0 37.613281-2.28125 54.238281-4.402343 19.609375-2.5 36.886719-4.703126 52.246094-2.285157 1.164062 20.832031-2.308594 38.699219-10.398438 52.714844-7.929687 13.734375-20.269531 23.144531-35.679687 27.210937-5.144531 1.355469-10.339844 2.042969-15.433594 2.042969zm0 0"/><path d="m256 .5c-5.523438 0-10 4.476562-10 10v26.082031c0 5.523438 4.476562 10 10 10 5.519531 0 10-4.476562 10-10v-26.082031c0-5.523438-4.476562-10-10-10zm0 0"/><path d="m206.375 59.660156c1.859375 3.175782 5.203125 4.941406 8.632812 4.941406 1.71875 0 3.460938-.441406 5.050782-1.375 4.765625-2.792968 6.359375-8.921874 3.566406-13.683593l-13.25-22.589844c-2.792969-4.765625-8.921875-6.363281-13.683594-3.566406-4.765625 2.792969-6.363281 8.921875-3.566406 13.683593zm0 0"/><path d="m291.941406 63.226562c1.589844.933594 3.328125 1.375 5.050782 1.375 3.429687 0 6.769531-1.765624 8.632812-4.941406l13.25-22.589844c2.796875-4.761718 1.199219-10.890624-3.566406-13.683593-4.761719-2.792969-10.890625-1.199219-13.683594 3.566406l-13.25 22.589844c-2.796875 4.761719-1.199219 10.890625 3.566406 13.683593zm0 0"/><path d="m389.488281 127.25c1.351563 4.257812 5.285157 6.984375 9.53125 6.984375.992188 0 2-.152344 2.996094-.464844 5.269531-1.652343 8.199219-7.265625 6.550781-12.535156-.007812-.011719-.015625-.035156-.023437-.058594-1.632813-5.234375-7.179688-8.183593-12.433594-6.597656-5.289063 1.597656-8.28125 7.175781-6.683594 12.464844.015625.050781.046875.148437.0625.207031zm0 0"/><path d="m120 138.5c0 5.519531-4.476562 10-10 10-5.519531 0-9.996094-4.480469-9.996094-10 0-5.523438 4.476563-10 9.996094-10 5.523438 0 10 4.476562 10 10zm0 0"/></svg>