<?xml version="1.0" encoding="utf-8"?>
<!-- Generator: Adobe Illustrator 23.0.1, SVG Export Plug-In . SVG Version: 6.00 Build 0)  -->
<svg version="1.1" id="Capa_1" xmlns="http://www.w3.org/2000/svg" xmlns:xlink="http://www.w3.org/1999/xlink" x="0px" y="0px"
	 viewBox="0 0 354.8 354.8" style="enable-background:new 0 0 354.8 354.8;" xml:space="preserve">
<style type="text/css">
	.st0{fill:#FFFFFF;}
</style>
<g>
	<g id="Layer_5_58_">
		<g>
			<g>
				<path class="st0" d="M265.4,109.1c-10.6-4.2-13.7-6.8-13.7-11.5c0-3.7,2.8-8.1,10.7-8.1c7,0,12.4,2.8,12.4,2.8
					c0.6,0.3,1.2,0.5,1.8,0.5c1.5,0,2.9-0.9,3.5-2.4l1.9-4.9c0.7-1.8-0.3-3.4-1.6-3.9c-4.3-1.9-12.8-3.3-12.8-3.3
					c-0.1,0-0.6-0.1-0.6-0.7l0-7.1c0-2.2-1.8-3.9-4-3.9h-3.5c-2.2,0-4,1.8-4,3.9l0,7.5c0,0.6-0.6,0.8-0.9,0.9
					c-10.7,2.5-17.3,10.3-17.3,20.2c0,12.3,10.1,17.8,21.1,22c8.8,3.4,12.3,6.9,12.3,12c0,5.6-5.1,9.4-12.3,9.4
					c-6.2,0-14.6-3.9-14.6-4c-0.5-0.3-1.1-0.4-1.7-0.4c-1.6,0-3,1-3.5,2.5l-1.8,5c-0.7,1.9,0.4,3.4,1.6,4c5.1,2.7,15.1,4.2,15.5,4.3
					c0.1,0,0.7,0.2,0.7,0.8v7.5c0,2.2,1.8,3.9,4,3.9h3.6c2.2,0,4-1.8,4-3.9v-7.9c0-0.7,0.5-0.8,0.7-0.8
					c11.4-2.6,18.3-10.9,18.3-21.3C285.3,121.5,279.4,114.6,265.4,109.1z"/>
				<path class="st0" d="M261,22.5c-51.8,0-93.8,42-93.8,93.8c0,51.8,42,93.8,93.8,93.8c51.8,0,93.8-42,93.8-93.8
					C354.8,64.5,312.8,22.5,261,22.5z M261,188.4c-39.8,0-72.1-32.3-72.1-72.1s32.3-72.1,72.1-72.1c39.8,0,72.1,32.3,72.1,72.1
					S300.8,188.4,261,188.4z"/>
			</g>
		</g>
	</g>
</g>
</svg>
